<mxfile host="app.diagrams.net" modified="2024-05-28T23:09:30.808Z" agent="Mozilla/5.0 (Windows NT 10.0; Win64; x64) AppleWebKit/537.36 (KHTML, like Gecko) Chrome/125.0.0.0 Safari/537.36" etag="PubTjpiMlU6km73T2uGD" version="24.4.9" type="github">
  <diagram name="Page-1" id="2YBvvXClWsGukQMizWep">
    <mxGraphModel dx="1728" dy="922" grid="1" gridSize="10" guides="1" tooltips="1" connect="1" arrows="1" fold="1" page="1" pageScale="1" pageWidth="850" pageHeight="1100" math="0" shadow="0">
      <root>
        <mxCell id="0" />
        <mxCell id="1" parent="0" />
        <mxCell id="sVpzyaRqVHjPGsMaTo8v-43" value="" style="rounded=0;whiteSpace=wrap;html=1;" parent="1" vertex="1">
          <mxGeometry x="100" y="410" width="620" height="290" as="geometry" />
        </mxCell>
        <mxCell id="sVpzyaRqVHjPGsMaTo8v-51" value="" style="rounded=0;whiteSpace=wrap;html=1;" parent="1" vertex="1">
          <mxGeometry x="180" y="530" width="460" height="150" as="geometry" />
        </mxCell>
        <mxCell id="sVpzyaRqVHjPGsMaTo8v-37" value="" style="rounded=0;whiteSpace=wrap;html=1;" parent="1" vertex="1">
          <mxGeometry x="180" y="340" width="460" height="60" as="geometry" />
        </mxCell>
        <mxCell id="sVpzyaRqVHjPGsMaTo8v-5" value="Interface Utilisateur" style="shape=umlLifeline;perimeter=lifelinePerimeter;whiteSpace=wrap;html=1;container=1;dropTarget=0;collapsible=0;recursiveResize=0;outlineConnect=0;portConstraint=eastwest;newEdgeStyle={&quot;curved&quot;:0,&quot;rounded&quot;:0};" parent="1" vertex="1">
          <mxGeometry x="310" y="20" width="100" height="680" as="geometry" />
        </mxCell>
        <mxCell id="IaqFnBA0eNjd1l9GPiWl-3" value="" style="html=1;points=[[0,0,0,0,5],[0,1,0,0,-5],[1,0,0,0,5],[1,1,0,0,-5]];perimeter=orthogonalPerimeter;outlineConnect=0;targetShapes=umlLifeline;portConstraint=eastwest;newEdgeStyle={&quot;curved&quot;:0,&quot;rounded&quot;:0};" vertex="1" parent="sVpzyaRqVHjPGsMaTo8v-5">
          <mxGeometry x="45" y="60" width="10" height="600" as="geometry" />
        </mxCell>
        <mxCell id="sVpzyaRqVHjPGsMaTo8v-9" value="systeme" style="shape=umlLifeline;perimeter=lifelinePerimeter;whiteSpace=wrap;html=1;container=1;dropTarget=0;collapsible=0;recursiveResize=0;outlineConnect=0;portConstraint=eastwest;newEdgeStyle={&quot;curved&quot;:0,&quot;rounded&quot;:0};" parent="1" vertex="1">
          <mxGeometry x="420" y="20" width="100" height="680" as="geometry" />
        </mxCell>
        <mxCell id="IaqFnBA0eNjd1l9GPiWl-4" value="" style="html=1;points=[[0,0,0,0,5],[0,1,0,0,-5],[1,0,0,0,5],[1,1,0,0,-5]];perimeter=orthogonalPerimeter;outlineConnect=0;targetShapes=umlLifeline;portConstraint=eastwest;newEdgeStyle={&quot;curved&quot;:0,&quot;rounded&quot;:0};" vertex="1" parent="sVpzyaRqVHjPGsMaTo8v-9">
          <mxGeometry x="45" y="90" width="10" height="560" as="geometry" />
        </mxCell>
        <mxCell id="sVpzyaRqVHjPGsMaTo8v-10" value="Base de donnees" style="shape=umlLifeline;perimeter=lifelinePerimeter;whiteSpace=wrap;html=1;container=1;dropTarget=0;collapsible=0;recursiveResize=0;outlineConnect=0;portConstraint=eastwest;newEdgeStyle={&quot;curved&quot;:0,&quot;rounded&quot;:0};" parent="1" vertex="1">
          <mxGeometry x="530" y="20" width="100" height="680" as="geometry" />
        </mxCell>
        <mxCell id="IaqFnBA0eNjd1l9GPiWl-7" value="" style="html=1;points=[[0,0,0,0,5],[0,1,0,0,-5],[1,0,0,0,5],[1,1,0,0,-5]];perimeter=orthogonalPerimeter;outlineConnect=0;targetShapes=umlLifeline;portConstraint=eastwest;newEdgeStyle={&quot;curved&quot;:0,&quot;rounded&quot;:0};" vertex="1" parent="sVpzyaRqVHjPGsMaTo8v-10">
          <mxGeometry x="45" y="160" width="10" height="480" as="geometry" />
        </mxCell>
        <mxCell id="sVpzyaRqVHjPGsMaTo8v-14" value="" style="shape=umlLifeline;perimeter=lifelinePerimeter;whiteSpace=wrap;html=1;container=1;dropTarget=0;collapsible=0;recursiveResize=0;outlineConnect=0;portConstraint=eastwest;newEdgeStyle={&quot;curved&quot;:0,&quot;rounded&quot;:0};participant=umlActor;" parent="1" vertex="1">
          <mxGeometry x="240" y="20" width="20" height="680" as="geometry" />
        </mxCell>
        <mxCell id="sVpzyaRqVHjPGsMaTo8v-15" value="&lt;font style=&quot;font-size: 8px;&quot;&gt;clique sur reservation&lt;/font&gt;" style="html=1;verticalAlign=bottom;endArrow=block;curved=0;rounded=0;" parent="1" edge="1" target="IaqFnBA0eNjd1l9GPiWl-3">
          <mxGeometry width="80" relative="1" as="geometry">
            <mxPoint x="250" y="110" as="sourcePoint" />
            <mxPoint x="350" y="110" as="targetPoint" />
          </mxGeometry>
        </mxCell>
        <mxCell id="sVpzyaRqVHjPGsMaTo8v-16" value="&lt;font style=&quot;font-size: 8px;&quot;&gt;acces page d&#39;accueil&lt;/font&gt;" style="html=1;verticalAlign=bottom;endArrow=block;curved=0;rounded=0;" parent="1" edge="1" target="IaqFnBA0eNjd1l9GPiWl-3">
          <mxGeometry width="80" relative="1" as="geometry">
            <mxPoint x="250" y="90" as="sourcePoint" />
            <mxPoint x="350" y="90" as="targetPoint" />
          </mxGeometry>
        </mxCell>
        <mxCell id="sVpzyaRqVHjPGsMaTo8v-17" value="&lt;font style=&quot;font-size: 8px;&quot;&gt;demande formulaire&amp;nbsp;&lt;/font&gt;&lt;div style=&quot;font-size: 8px;&quot;&gt;&lt;font style=&quot;font-size: 8px;&quot;&gt;de reservation&lt;/font&gt;&lt;/div&gt;" style="html=1;verticalAlign=bottom;endArrow=block;curved=0;rounded=0;" parent="1" edge="1" source="IaqFnBA0eNjd1l9GPiWl-3">
          <mxGeometry width="80" relative="1" as="geometry">
            <mxPoint x="370" y="120" as="sourcePoint" />
            <mxPoint x="465" y="120" as="targetPoint" />
          </mxGeometry>
        </mxCell>
        <mxCell id="sVpzyaRqVHjPGsMaTo8v-18" value="&lt;font style=&quot;font-size: 8px;&quot;&gt;affiche formulaire&amp;nbsp;&lt;/font&gt;&lt;div style=&quot;font-size: 8px;&quot;&gt;de reservation&lt;/div&gt;" style="html=1;verticalAlign=bottom;endArrow=open;dashed=1;endSize=8;curved=0;rounded=0;" parent="1" edge="1" target="IaqFnBA0eNjd1l9GPiWl-3">
          <mxGeometry relative="1" as="geometry">
            <mxPoint x="465" y="150" as="sourcePoint" />
            <mxPoint x="370" y="150" as="targetPoint" />
          </mxGeometry>
        </mxCell>
        <mxCell id="sVpzyaRqVHjPGsMaTo8v-19" value="&lt;span style=&quot;font-size: 8px;&quot;&gt;remplir le formulaire&lt;/span&gt;" style="html=1;verticalAlign=bottom;endArrow=block;curved=0;rounded=0;" parent="1" edge="1" target="IaqFnBA0eNjd1l9GPiWl-3">
          <mxGeometry width="80" relative="1" as="geometry">
            <mxPoint x="250" y="170" as="sourcePoint" />
            <mxPoint x="350" y="170" as="targetPoint" />
          </mxGeometry>
        </mxCell>
        <mxCell id="sVpzyaRqVHjPGsMaTo8v-20" value="&lt;span style=&quot;font-size: 8px;&quot;&gt;valide le formulaire&lt;/span&gt;" style="html=1;verticalAlign=bottom;endArrow=block;curved=0;rounded=0;" parent="1" edge="1" source="IaqFnBA0eNjd1l9GPiWl-3">
          <mxGeometry width="80" relative="1" as="geometry">
            <mxPoint x="370" y="180" as="sourcePoint" />
            <mxPoint x="465" y="180" as="targetPoint" />
          </mxGeometry>
        </mxCell>
        <mxCell id="sVpzyaRqVHjPGsMaTo8v-25" value="&lt;font style=&quot;font-size: 8px;&quot;&gt;alternative&lt;/font&gt;" style="shape=umlFrame;whiteSpace=wrap;html=1;pointerEvents=0;width=60;height=15;" parent="1" vertex="1">
          <mxGeometry x="100" y="200" width="620" height="210" as="geometry" />
        </mxCell>
        <mxCell id="sVpzyaRqVHjPGsMaTo8v-27" value="&lt;span style=&quot;font-size: 8px;&quot;&gt;vérifie état connexion&lt;/span&gt;" style="html=1;verticalAlign=bottom;endArrow=block;curved=0;rounded=0;" parent="1" edge="1" source="IaqFnBA0eNjd1l9GPiWl-4">
          <mxGeometry width="80" relative="1" as="geometry">
            <mxPoint x="490" y="190" as="sourcePoint" />
            <mxPoint x="575" y="190" as="targetPoint" />
          </mxGeometry>
        </mxCell>
        <mxCell id="sVpzyaRqVHjPGsMaTo8v-28" value="&lt;span style=&quot;font-size: 8px;&quot;&gt;Utilisateur connecté&lt;/span&gt;" style="html=1;verticalAlign=bottom;endArrow=open;dashed=1;endSize=8;curved=0;rounded=0;" parent="1" edge="1" target="IaqFnBA0eNjd1l9GPiWl-4">
          <mxGeometry relative="1" as="geometry">
            <mxPoint x="575" y="220" as="sourcePoint" />
            <mxPoint x="490" y="219.99999999999994" as="targetPoint" />
          </mxGeometry>
        </mxCell>
        <mxCell id="sVpzyaRqVHjPGsMaTo8v-30" value="&lt;span style=&quot;font-size: 8px;&quot;&gt;vérifie disponibilité&lt;/span&gt;" style="html=1;verticalAlign=bottom;endArrow=block;curved=0;rounded=0;" parent="1" edge="1" source="IaqFnBA0eNjd1l9GPiWl-4">
          <mxGeometry width="80" relative="1" as="geometry">
            <mxPoint x="490" y="239.99999999999994" as="sourcePoint" />
            <mxPoint x="575" y="240" as="targetPoint" />
          </mxGeometry>
        </mxCell>
        <mxCell id="sVpzyaRqVHjPGsMaTo8v-31" value="&lt;font style=&quot;font-size: 8px;&quot;&gt;alternative&lt;/font&gt;" style="shape=umlFrame;whiteSpace=wrap;html=1;pointerEvents=0;width=60;height=15;" parent="1" vertex="1">
          <mxGeometry x="180" y="250" width="460" height="90" as="geometry" />
        </mxCell>
        <mxCell id="sVpzyaRqVHjPGsMaTo8v-32" value="&lt;span style=&quot;font-size: 8px;&quot;&gt;table disponible&lt;/span&gt;" style="html=1;verticalAlign=bottom;endArrow=open;dashed=1;endSize=8;curved=0;rounded=0;" parent="1" edge="1" target="IaqFnBA0eNjd1l9GPiWl-4">
          <mxGeometry relative="1" as="geometry">
            <mxPoint x="575" y="270" as="sourcePoint" />
            <mxPoint x="490" y="270" as="targetPoint" />
          </mxGeometry>
        </mxCell>
        <mxCell id="sVpzyaRqVHjPGsMaTo8v-34" value="&lt;span style=&quot;font-size: 8px;&quot;&gt;réservation enregisté&lt;/span&gt;" style="html=1;verticalAlign=bottom;endArrow=open;dashed=1;endSize=8;curved=0;rounded=0;" parent="1" edge="1">
          <mxGeometry relative="1" as="geometry">
            <mxPoint x="575" y="310" as="sourcePoint" />
            <mxPoint x="475" y="310" as="targetPoint" />
          </mxGeometry>
        </mxCell>
        <mxCell id="sVpzyaRqVHjPGsMaTo8v-33" value="&lt;span style=&quot;font-size: 8px;&quot;&gt;Enregistre la reservation&lt;/span&gt;" style="html=1;verticalAlign=bottom;endArrow=block;curved=0;rounded=0;" parent="1" edge="1">
          <mxGeometry width="80" relative="1" as="geometry">
            <mxPoint x="475" y="294.89" as="sourcePoint" />
            <mxPoint x="575" y="294.89" as="targetPoint" />
          </mxGeometry>
        </mxCell>
        <mxCell id="sVpzyaRqVHjPGsMaTo8v-35" value="&lt;span style=&quot;font-size: 8px;&quot;&gt;valide réservation&lt;/span&gt;" style="html=1;verticalAlign=bottom;endArrow=open;dashed=1;endSize=8;curved=0;rounded=0;" parent="1" edge="1" target="IaqFnBA0eNjd1l9GPiWl-3">
          <mxGeometry relative="1" as="geometry">
            <mxPoint x="465" y="320" as="sourcePoint" />
            <mxPoint x="380" y="320" as="targetPoint" />
          </mxGeometry>
        </mxCell>
        <mxCell id="sVpzyaRqVHjPGsMaTo8v-36" value="&lt;span style=&quot;font-size: 8px;&quot;&gt;confirme réservation&lt;/span&gt;" style="html=1;verticalAlign=bottom;endArrow=open;dashed=1;endSize=8;curved=0;rounded=0;" parent="1" edge="1" source="IaqFnBA0eNjd1l9GPiWl-3">
          <mxGeometry relative="1" as="geometry">
            <mxPoint x="350" y="330" as="sourcePoint" />
            <mxPoint x="250" y="330" as="targetPoint" />
          </mxGeometry>
        </mxCell>
        <mxCell id="sVpzyaRqVHjPGsMaTo8v-38" value="&lt;span style=&quot;font-size: 8px;&quot;&gt;table indisponible&lt;/span&gt;" style="html=1;verticalAlign=bottom;endArrow=open;dashed=1;endSize=8;curved=0;rounded=0;" parent="1" edge="1">
          <mxGeometry relative="1" as="geometry">
            <mxPoint x="575" y="359.89" as="sourcePoint" />
            <mxPoint x="475" y="359.89" as="targetPoint" />
          </mxGeometry>
        </mxCell>
        <mxCell id="sVpzyaRqVHjPGsMaTo8v-39" value="&lt;span style=&quot;font-size: 8px;&quot;&gt;annule reservation&lt;/span&gt;" style="html=1;verticalAlign=bottom;endArrow=open;dashed=1;endSize=8;curved=0;rounded=0;" parent="1" edge="1" target="IaqFnBA0eNjd1l9GPiWl-3">
          <mxGeometry relative="1" as="geometry">
            <mxPoint x="465" y="370" as="sourcePoint" />
            <mxPoint x="370" y="370" as="targetPoint" />
          </mxGeometry>
        </mxCell>
        <mxCell id="sVpzyaRqVHjPGsMaTo8v-40" value="&lt;span style=&quot;font-size: 8px;&quot;&gt;réservation annulé&lt;/span&gt;" style="html=1;verticalAlign=bottom;endArrow=open;dashed=1;endSize=8;curved=0;rounded=0;" parent="1" edge="1" source="IaqFnBA0eNjd1l9GPiWl-3">
          <mxGeometry relative="1" as="geometry">
            <mxPoint x="350" y="385" as="sourcePoint" />
            <mxPoint x="250" y="384.76" as="targetPoint" />
          </mxGeometry>
        </mxCell>
        <mxCell id="sVpzyaRqVHjPGsMaTo8v-41" value="&lt;font style=&quot;font-size: 8px;&quot;&gt;si table disponible&lt;/font&gt;" style="text;html=1;align=center;verticalAlign=middle;whiteSpace=wrap;rounded=0;" parent="1" vertex="1">
          <mxGeometry x="180" y="270" width="60" height="30" as="geometry" />
        </mxCell>
        <mxCell id="sVpzyaRqVHjPGsMaTo8v-42" value="&lt;font style=&quot;font-size: 8px;&quot;&gt;Sinon&lt;/font&gt;" style="text;html=1;align=center;verticalAlign=middle;whiteSpace=wrap;rounded=0;" parent="1" vertex="1">
          <mxGeometry x="180" y="340" width="60" height="30" as="geometry" />
        </mxCell>
        <mxCell id="sVpzyaRqVHjPGsMaTo8v-44" value="&lt;span style=&quot;font-size: 8px;&quot;&gt;donnée clients valides&lt;/span&gt;" style="html=1;verticalAlign=bottom;endArrow=open;dashed=1;endSize=8;curved=0;rounded=0;" parent="1" edge="1">
          <mxGeometry relative="1" as="geometry">
            <mxPoint x="575" y="510" as="sourcePoint" />
            <mxPoint x="475" y="510" as="targetPoint" />
          </mxGeometry>
        </mxCell>
        <mxCell id="sVpzyaRqVHjPGsMaTo8v-45" value="&lt;span style=&quot;font-size: 8px;&quot;&gt;affiche&lt;/span&gt;&lt;div&gt;&lt;span style=&quot;font-size: 8px;&quot;&gt;formulaire connexion&lt;/span&gt;&lt;/div&gt;" style="html=1;verticalAlign=bottom;endArrow=open;dashed=1;endSize=8;curved=0;rounded=0;" parent="1" edge="1" target="IaqFnBA0eNjd1l9GPiWl-3">
          <mxGeometry x="-0.0959" relative="1" as="geometry">
            <mxPoint x="465" y="440" as="sourcePoint" />
            <mxPoint x="380" y="440" as="targetPoint" />
            <mxPoint as="offset" />
          </mxGeometry>
        </mxCell>
        <mxCell id="sVpzyaRqVHjPGsMaTo8v-46" value="&lt;font style=&quot;font-size: 8px;&quot;&gt;alternative&lt;/font&gt;" style="shape=umlFrame;whiteSpace=wrap;html=1;pointerEvents=0;width=60;height=15;" parent="1" vertex="1">
          <mxGeometry x="180" y="450" width="460" height="80" as="geometry" />
        </mxCell>
        <mxCell id="sVpzyaRqVHjPGsMaTo8v-47" value="&lt;span style=&quot;font-size: 8px;&quot;&gt;remplir le formulaire&lt;/span&gt;" style="html=1;verticalAlign=bottom;endArrow=block;curved=0;rounded=0;" parent="1" edge="1" target="IaqFnBA0eNjd1l9GPiWl-3">
          <mxGeometry width="80" relative="1" as="geometry">
            <mxPoint x="250" y="470" as="sourcePoint" />
            <mxPoint x="340" y="470" as="targetPoint" />
          </mxGeometry>
        </mxCell>
        <mxCell id="sVpzyaRqVHjPGsMaTo8v-48" value="&lt;span style=&quot;font-size: 8px;&quot;&gt;envoie le formulaire&lt;/span&gt;" style="html=1;verticalAlign=bottom;endArrow=block;curved=0;rounded=0;" parent="1" edge="1" source="IaqFnBA0eNjd1l9GPiWl-3">
          <mxGeometry width="80" relative="1" as="geometry">
            <mxPoint x="370" y="480" as="sourcePoint" />
            <mxPoint x="465" y="480" as="targetPoint" />
          </mxGeometry>
        </mxCell>
        <mxCell id="sVpzyaRqVHjPGsMaTo8v-49" value="&lt;span style=&quot;font-size: 8px;&quot;&gt;vérifie données&lt;/span&gt;&lt;div&gt;&lt;span style=&quot;font-size: 8px;&quot;&gt;&amp;nbsp;de connexion&lt;/span&gt;&lt;/div&gt;" style="html=1;verticalAlign=bottom;endArrow=block;curved=0;rounded=0;" parent="1" edge="1">
          <mxGeometry width="80" relative="1" as="geometry">
            <mxPoint x="475" y="489.89" as="sourcePoint" />
            <mxPoint x="575" y="489.89" as="targetPoint" />
          </mxGeometry>
        </mxCell>
        <mxCell id="sVpzyaRqVHjPGsMaTo8v-50" value="&lt;span style=&quot;font-size: 8px;&quot;&gt;confirme la connexion&lt;/span&gt;" style="html=1;verticalAlign=bottom;endArrow=open;dashed=1;endSize=8;curved=0;rounded=0;" parent="1" edge="1" target="IaqFnBA0eNjd1l9GPiWl-3">
          <mxGeometry relative="1" as="geometry">
            <mxPoint x="465" y="520" as="sourcePoint" />
            <mxPoint x="380" y="520" as="targetPoint" />
          </mxGeometry>
        </mxCell>
        <mxCell id="sVpzyaRqVHjPGsMaTo8v-52" value="&lt;span style=&quot;font-size: 8px;&quot;&gt;clique sur inscription&lt;/span&gt;" style="html=1;verticalAlign=bottom;endArrow=block;curved=0;rounded=0;" parent="1" edge="1" target="IaqFnBA0eNjd1l9GPiWl-3">
          <mxGeometry width="80" relative="1" as="geometry">
            <mxPoint x="250" y="550" as="sourcePoint" />
            <mxPoint x="350" y="550" as="targetPoint" />
          </mxGeometry>
        </mxCell>
        <mxCell id="sVpzyaRqVHjPGsMaTo8v-55" value="&lt;span style=&quot;font-size: 8px;&quot;&gt;affiche&lt;/span&gt;&lt;div&gt;&lt;span style=&quot;font-size: 8px;&quot;&gt;formulaire d&#39;inscription&lt;/span&gt;&lt;/div&gt;" style="html=1;verticalAlign=bottom;endArrow=open;dashed=1;endSize=8;curved=0;rounded=0;" parent="1" edge="1" target="IaqFnBA0eNjd1l9GPiWl-3">
          <mxGeometry x="-0.0943" relative="1" as="geometry">
            <mxPoint x="465" y="590" as="sourcePoint" />
            <mxPoint x="380" y="590" as="targetPoint" />
            <mxPoint as="offset" />
          </mxGeometry>
        </mxCell>
        <mxCell id="sVpzyaRqVHjPGsMaTo8v-53" value="&lt;font style=&quot;font-size: 8px;&quot;&gt;demande formulaire&amp;nbsp;&lt;/font&gt;&lt;div style=&quot;font-size: 8px;&quot;&gt;&lt;font style=&quot;font-size: 8px;&quot;&gt;d&#39;inscription&lt;/font&gt;&lt;/div&gt;" style="html=1;verticalAlign=bottom;endArrow=block;curved=0;rounded=0;" parent="1" edge="1" source="IaqFnBA0eNjd1l9GPiWl-3">
          <mxGeometry width="80" relative="1" as="geometry">
            <mxPoint x="370" y="560" as="sourcePoint" />
            <mxPoint x="465" y="560" as="targetPoint" />
          </mxGeometry>
        </mxCell>
        <mxCell id="sVpzyaRqVHjPGsMaTo8v-56" value="&lt;span style=&quot;font-size: 8px;&quot;&gt;remplir le formulaire&lt;/span&gt;" style="html=1;verticalAlign=bottom;endArrow=block;curved=0;rounded=0;" parent="1" edge="1" target="IaqFnBA0eNjd1l9GPiWl-3">
          <mxGeometry width="80" relative="1" as="geometry">
            <mxPoint x="250" y="610" as="sourcePoint" />
            <mxPoint x="350" y="610" as="targetPoint" />
          </mxGeometry>
        </mxCell>
        <mxCell id="sVpzyaRqVHjPGsMaTo8v-57" value="&lt;span style=&quot;font-size: 8px;&quot;&gt;envoie les données&lt;/span&gt;" style="html=1;verticalAlign=bottom;endArrow=block;curved=0;rounded=0;" parent="1" edge="1" source="IaqFnBA0eNjd1l9GPiWl-3">
          <mxGeometry width="80" relative="1" as="geometry">
            <mxPoint x="370" y="620" as="sourcePoint" />
            <mxPoint x="465" y="620" as="targetPoint" />
          </mxGeometry>
        </mxCell>
        <mxCell id="sVpzyaRqVHjPGsMaTo8v-58" value="&lt;span style=&quot;font-size: 8px;&quot;&gt;créer le client&lt;/span&gt;" style="html=1;verticalAlign=bottom;endArrow=block;curved=0;rounded=0;" parent="1" edge="1">
          <mxGeometry width="80" relative="1" as="geometry">
            <mxPoint x="475" y="630" as="sourcePoint" />
            <mxPoint x="575" y="630" as="targetPoint" />
          </mxGeometry>
        </mxCell>
        <mxCell id="sVpzyaRqVHjPGsMaTo8v-59" value="&lt;span style=&quot;font-size: 8px;&quot;&gt;utilisateur créé&lt;/span&gt;" style="html=1;verticalAlign=bottom;endArrow=open;dashed=1;endSize=8;curved=0;rounded=0;" parent="1" edge="1">
          <mxGeometry relative="1" as="geometry">
            <mxPoint x="575" y="650" as="sourcePoint" />
            <mxPoint x="475" y="650" as="targetPoint" />
          </mxGeometry>
        </mxCell>
        <mxCell id="sVpzyaRqVHjPGsMaTo8v-62" value="&lt;span style=&quot;font-size: 8px;&quot;&gt;confirmation d&#39;insciption&lt;/span&gt;" style="html=1;verticalAlign=bottom;endArrow=open;dashed=1;endSize=8;curved=0;rounded=0;" parent="1" edge="1" target="IaqFnBA0eNjd1l9GPiWl-3">
          <mxGeometry relative="1" as="geometry">
            <mxPoint x="465" y="660" as="sourcePoint" />
            <mxPoint x="380" y="660" as="targetPoint" />
          </mxGeometry>
        </mxCell>
        <mxCell id="sVpzyaRqVHjPGsMaTo8v-63" value="&lt;font style=&quot;font-size: 8px;&quot;&gt;si a un compte&lt;/font&gt;" style="text;html=1;align=center;verticalAlign=middle;whiteSpace=wrap;rounded=0;" parent="1" vertex="1">
          <mxGeometry x="180" y="475" width="60" height="30" as="geometry" />
        </mxCell>
        <mxCell id="sVpzyaRqVHjPGsMaTo8v-64" value="&lt;font style=&quot;font-size: 8px;&quot;&gt;Sinon&lt;/font&gt;" style="text;html=1;align=center;verticalAlign=middle;whiteSpace=wrap;rounded=0;" parent="1" vertex="1">
          <mxGeometry x="180" y="540" width="60" height="30" as="geometry" />
        </mxCell>
        <mxCell id="IaqFnBA0eNjd1l9GPiWl-1" value="&lt;font style=&quot;font-size: 8px;&quot;&gt;si connecté&lt;/font&gt;" style="text;html=1;align=center;verticalAlign=middle;whiteSpace=wrap;rounded=0;" vertex="1" parent="1">
          <mxGeometry x="100" y="220" width="60" height="30" as="geometry" />
        </mxCell>
        <mxCell id="IaqFnBA0eNjd1l9GPiWl-2" value="&lt;font style=&quot;font-size: 8px;&quot;&gt;sinon&lt;/font&gt;" style="text;html=1;align=center;verticalAlign=middle;whiteSpace=wrap;rounded=0;" vertex="1" parent="1">
          <mxGeometry x="100" y="420" width="60" height="30" as="geometry" />
        </mxCell>
      </root>
    </mxGraphModel>
  </diagram>
</mxfile>
